# xmcd
#
# Track frame offsets:
#	150
#	21900
#	43425
#	57675
#	80325
#	100650
#	119550
#	138150
#	151200
#	171075
#	189450
#	210150
#	226500
#	250125
#	269850
#
# Disc length: 3856 seconds
#
# Revision: 0
# Processed by: cddbd v1.4PL0 Copyright (c) Steve Scherf et al.
# Submitted via: EasyCDDAExtractor 4.6.0.1
#
DISCID=cc0f0e0f
DTITLE=Various Artist - Tea Predestined Relationship
DYEAR=1900
DGENRE=
TTITLE0=You are wind and I am sand
TTITLE1=Raining constantly
TTITLE2=Mundane world
TTITLE3=How can you leave me in such sorrow
TTITLE4=Refuse to come to my senses
TTITLE5=Can't say in a word
TTITLE6=Loving in the windy and raining
TTITLE7=Hazy moon and hazy bird
TTITLE8=Wish you better than me
TTITLE9=Yeliya Shelia
TTITLE10=Heart rain
TTITLE11=Strolling in life
TTITLE12=Loving beauty is more than power
TTITLE13=Tear from Monalisa
TTITLE14=Forgettable water
EXTD=
EXTT0=
EXTT1=
EXTT2=
EXTT3=
EXTT4=
EXTT5=
EXTT6=
EXTT7=
EXTT8=
EXTT9=
EXTT10=
EXTT11=
EXTT12=
EXTT13=
EXTT14=
PLAYORDER=
